<svg xmlns="http://www.w3.org/2000/svg" xmlns:xlink="http://www.w3.org/1999/xlink" width="40" zoomAndPan="magnify" viewBox="0 0 30 30.000001" height="40" preserveAspectRatio="xMidYMid meet" version="1.0"><defs><clipPath id="c389656adb"><path d="M 3.429688 2.925781 L 26.65625 2.925781 L 26.65625 26.152344 L 3.429688 26.152344 Z M 3.429688 2.925781 " clip-rule="nonzero"/></clipPath></defs><g clip-path="url(#c389656adb)"><path fill="#ffffff" d="M 26.5625 14.511719 C 26.5625 16.074219 26.257812 17.589844 25.652344 19.015625 C 25.070312 20.394531 24.238281 21.632812 23.175781 22.691406 C 22.113281 23.753906 20.875 24.59375 19.5 25.175781 C 18.070312 25.777344 16.558594 26.089844 14.996094 26.089844 L 9.773438 26.089844 L 14.980469 23.148438 L 14.996094 23.148438 C 19.75 23.148438 23.621094 19.269531 23.621094 14.515625 C 23.621094 9.761719 19.75 5.882812 14.996094 5.882812 L 6.371094 5.882812 L 6.371094 13.789062 L 12.800781 10.15625 C 13.847656 9.558594 15.074219 9.394531 16.242188 9.699219 C 17.410156 10 18.402344 10.730469 19.03125 11.761719 C 19.691406 12.839844 19.882812 14.109375 19.566406 15.332031 C 19.25 16.558594 18.46875 17.578125 17.371094 18.203125 L 3.429688 26.082031 L 3.429688 22.703125 L 15.917969 15.640625 C 16.316406 15.414062 16.601562 15.042969 16.714844 14.597656 C 16.828125 14.152344 16.761719 13.691406 16.519531 13.300781 C 16.042969 12.519531 15.046875 12.261719 14.253906 12.714844 L 3.429688 18.835938 L 3.429688 2.941406 L 14.996094 2.941406 C 16.558594 2.941406 18.074219 3.25 19.5 3.851562 C 20.878906 4.433594 22.113281 5.269531 23.175781 6.332031 C 24.238281 7.394531 25.070312 8.628906 25.652344 10.007812 C 26.257812 11.433594 26.5625 12.949219 26.5625 14.511719 Z M 26.5625 14.511719 " fill-opacity="1" fill-rule="nonzero"/></g></svg>