<svg xmlns="http://www.w3.org/2000/svg" xmlns:xlink="http://www.w3.org/1999/xlink" width="40" zoomAndPan="magnify" viewBox="0 0 30 30.000001" height="40" preserveAspectRatio="xMidYMid meet" version="1.0"><defs><clipPath id="b8eacda39d"><path d="M 3.410156 2.902344 L 26.632812 2.902344 L 26.632812 26.128906 L 3.410156 26.128906 Z M 3.410156 2.902344 " clip-rule="nonzero"/></clipPath></defs><g clip-path="url(#b8eacda39d)"><path fill="#000000" d="M 26.585938 14.511719 C 26.585938 16.074219 26.28125 17.59375 25.675781 19.023438 C 25.089844 20.40625 24.257812 21.644531 23.191406 22.710938 C 22.128906 23.773438 20.890625 24.613281 19.507812 25.195312 C 18.078125 25.800781 16.5625 26.113281 14.996094 26.113281 L 9.765625 26.113281 L 14.980469 23.167969 L 14.996094 23.167969 C 19.761719 23.167969 23.636719 19.28125 23.636719 14.515625 C 23.636719 9.75 19.761719 5.863281 14.996094 5.863281 L 6.355469 5.863281 L 6.355469 13.789062 L 12.796875 10.148438 C 13.847656 9.550781 15.074219 9.386719 16.246094 9.6875 C 17.414062 9.992188 18.40625 10.726562 19.039062 11.757812 C 19.703125 12.835938 19.890625 14.109375 19.574219 15.335938 C 19.257812 16.5625 18.476562 17.582031 17.375 18.210938 L 3.410156 26.105469 L 3.410156 22.71875 L 15.917969 15.644531 C 16.320312 15.417969 16.605469 15.046875 16.71875 14.597656 C 16.832031 14.152344 16.765625 13.691406 16.523438 13.296875 C 16.046875 12.515625 15.050781 12.261719 14.253906 12.710938 L 3.410156 18.84375 L 3.410156 2.917969 L 14.996094 2.917969 C 16.5625 2.917969 18.078125 3.226562 19.507812 3.832031 C 20.890625 4.414062 22.128906 5.253906 23.191406 6.316406 C 24.257812 7.378906 25.09375 8.621094 25.675781 10 C 26.28125 11.429688 26.585938 12.949219 26.585938 14.511719 Z M 26.585938 14.511719 " fill-opacity="1" fill-rule="nonzero"/></g></svg>